<svg width="350" height="350" viewBox="0 0 350 350" fill="none" xmlns="http://www.w3.org/2000/svg">
<path d="M175 65.625C102.083 65.625 39.8122 110.979 14.583 175C39.8122 239.021 102.083 284.375 175 284.375C247.916 284.375 310.187 239.021 335.416 175C310.187 110.979 247.916 65.625 175 65.625ZM175 247.917C134.75 247.917 102.083 215.25 102.083 175C102.083 134.75 134.75 102.083 175 102.083C215.25 102.083 247.916 134.75 247.916 175C247.916 215.25 215.25 247.917 175 247.917ZM175 131.25C150.791 131.25 131.25 150.792 131.25 175C131.25 199.208 150.791 218.75 175 218.75C199.208 218.75 218.75 199.208 218.75 175C218.75 150.792 199.208 131.25 175 131.25Z" fill="#1EB7D9"/>
</svg>
