<svg width="292" height="292" viewBox="0 0 292 292" fill="none" xmlns="http://www.w3.org/2000/svg">
<path d="M146 0.166992C126.849 0.166992 107.886 3.93908 90.1923 11.2679C72.499 18.5967 56.4225 29.3387 42.8806 42.8806C15.5315 70.2296 0.166992 107.323 0.166992 146C0.166992 184.678 15.5315 221.771 42.8806 249.12C56.4225 262.662 72.499 273.404 90.1923 280.733C107.886 288.062 126.849 291.834 146 291.834C184.678 291.834 221.771 276.469 249.12 249.12C276.469 221.771 291.834 184.678 291.834 146C291.834 129.084 288.771 112.313 282.938 96.5628L259.604 119.896C261.646 128.5 262.667 137.25 262.667 146C262.667 176.942 250.375 206.617 228.496 228.496C206.617 250.375 176.942 262.667 146 262.667C115.058 262.667 85.3838 250.375 63.5045 228.496C41.6253 206.617 29.3337 176.942 29.3337 146C29.3337 115.058 41.6253 85.3838 63.5045 63.5045C85.3838 41.6253 115.058 29.3337 146 29.3337C154.75 29.3337 163.5 30.3545 172.104 32.3962L195.584 8.91699C179.688 3.22949 162.917 0.166992 146 0.166992ZM248.084 0.166992L189.75 58.5003V80.3753L152.563 117.563C150.375 116.834 148.188 116.834 146 116.834C138.265 116.834 130.846 119.907 125.376 125.376C119.907 130.846 116.834 138.265 116.834 146C116.834 153.736 119.907 161.154 125.376 166.624C130.846 172.094 138.265 175.167 146 175.167C153.736 175.167 161.154 172.094 166.624 166.624C172.094 161.154 175.167 153.736 175.167 146C175.167 143.813 175.167 141.625 174.438 139.438L211.625 102.25H233.5L291.834 43.917H248.084V0.166992ZM146 58.5003C122.794 58.5003 100.538 67.719 84.1285 84.1285C67.719 100.538 58.5003 122.794 58.5003 146C58.5003 169.207 67.719 191.463 84.1285 207.872C100.538 224.282 122.794 233.5 146 233.5C169.207 233.5 191.463 224.282 207.872 207.872C224.282 191.463 233.5 169.207 233.5 146H204.334C204.334 161.471 198.188 176.309 187.248 187.248C176.309 198.188 161.471 204.334 146 204.334C130.529 204.334 115.692 198.188 104.752 187.248C93.8128 176.309 87.667 161.471 87.667 146C87.667 130.529 93.8128 115.692 104.752 104.752C115.692 93.8128 130.529 87.667 146 87.667V58.5003Z" fill="#1C8C6C"/>
</svg>
