<svg width="322" height="292" viewBox="0 0 322 292" fill="none" xmlns="http://www.w3.org/2000/svg">
<path d="M73.5732 101.083L94.2087 80.4918L142.859 129.142L227.952 44.0334L248.588 64.6689L142.859 170.369L73.5732 101.083Z" fill="#1C8C6C"/>
<path d="M292.25 0.166748H29.7497C22.0213 0.189829 14.616 3.27015 9.15122 8.73497C3.68641 14.1998 0.606089 21.605 0.583008 29.3334L0.64134 204.392C0.656756 212.107 3.72847 219.502 9.184 224.957C14.6395 230.413 22.0344 233.485 29.7497 233.5H131.833V262.667L102.725 262.725L102.666 291.833H219.333L219.391 262.725L190.166 262.667V233.5H292.25C299.978 233.477 307.383 230.397 312.848 224.932C318.313 219.467 321.393 212.062 321.416 204.333V29.3334C321.393 21.605 318.313 14.1998 312.848 8.73497C307.383 3.27015 299.978 0.189829 292.25 0.166748ZM292.25 204.333H29.7497V29.3334H292.25V204.333Z" fill="black"/>
</svg>
